<svg width="15" height="16" viewBox="0 0 15 16" fill="none" xmlns="http://www.w3.org/2000/svg">
<mask id="mask0_54_90" style="mask-type:luminance" maskUnits="userSpaceOnUse" x="1" y="2" width="13" height="13">
<path fill-rule="evenodd" clip-rule="evenodd" d="M3.21428 2.64286C2.03082 2.64286 1.07143 3.60225 1.07143 4.78571V9.79144C1.07143 10.9749 2.03082 11.9343 3.21428 11.9343H5.47727L6.78945 14.1771C6.99632 14.5308 7.50737 14.5308 7.71423 14.1771L9.02641 11.9343H11.25C12.4335 11.9343 13.3929 10.9749 13.3929 9.79144V4.78571C13.3929 3.60225 12.4335 2.64286 11.25 2.64286H3.21428Z" fill="white"/>
</mask>
<g mask="url(#mask0_54_90)">
<path d="M5.47727 11.9343L6.40206 11.3932L6.09176 10.8629H5.47727V11.9343ZM9.02641 11.9343V10.8629H8.41192L8.10163 11.3932L9.02641 11.9343ZM2.14286 4.78571C2.14286 4.19398 2.62256 3.71428 3.21429 3.71428V1.57143C1.43909 1.57143 0 3.01052 0 4.78571H2.14286ZM2.14286 9.79144V4.78571H0V9.79144H2.14286ZM3.21429 10.8629C2.62256 10.8629 2.14286 10.3832 2.14286 9.79144H0C0 11.5667 1.43909 13.0057 3.21429 13.0057V10.8629ZM5.47727 10.8629H3.21429V13.0057H5.47727V10.8629ZM7.71423 13.6361L6.40206 11.3932L4.55249 12.4754L5.86467 14.7182L7.71423 13.6361ZM6.78945 13.6361C6.99632 13.2826 7.50737 13.2826 7.71423 13.6361L5.86467 14.7182C6.48526 15.779 8.01842 15.779 8.63902 14.7182L6.78945 13.6361ZM8.10163 11.3932L6.78945 13.6361L8.63902 14.7182L9.9512 12.4754L8.10163 11.3932ZM11.25 10.8629H9.02641V13.0057H11.25V10.8629ZM12.3214 9.79144C12.3214 10.3832 11.8417 10.8629 11.25 10.8629V13.0057C13.0252 13.0057 14.4643 11.5667 14.4643 9.79144H12.3214ZM12.3214 4.78571V9.79144H14.4643V4.78571H12.3214ZM11.25 3.71428C11.8417 3.71428 12.3214 4.19398 12.3214 4.78571H14.4643C14.4643 3.01052 13.0252 1.57143 11.25 1.57143V3.71428ZM3.21429 3.71428H11.25V1.57143H3.21429V3.71428Z" fill="#999999"/>
</g>
<path d="M4.66069 7.92362C5.10449 7.92362 5.46426 7.56385 5.46426 7.12005C5.46426 6.67625 5.10449 6.31647 4.66069 6.31647C4.21689 6.31647 3.85712 6.67625 3.85712 7.12005C3.85712 7.56385 4.21689 7.92362 4.66069 7.92362Z" fill="#999999"/>
<path d="M7.23213 7.92362C7.67593 7.92362 8.0357 7.56385 8.0357 7.12005C8.0357 6.67625 7.67593 6.31647 7.23213 6.31647C6.78833 6.31647 6.42856 6.67625 6.42856 7.12005C6.42856 7.56385 6.78833 7.92362 7.23213 7.92362Z" fill="#999999"/>
<path d="M9.8036 7.92362C10.2474 7.92362 10.6072 7.56385 10.6072 7.12005C10.6072 6.67625 10.2474 6.31647 9.8036 6.31647C9.3598 6.31647 9.00003 6.67625 9.00003 7.12005C9.00003 7.56385 9.3598 7.92362 9.8036 7.92362Z" fill="#999999"/>
</svg>
